<svg xmlns="http://www.w3.org/2000/svg" viewBox="0 0 512 512" width="512" height="512">
  <defs>
    <linearGradient id="growthGradient" x1="0%" y1="100%" x2="0%" y2="0%">
      <stop offset="0%" style="stop-color:#0C4FB8;stop-opacity:1" /> <stop offset="100%" style="stop-color:#00DCEC;stop-opacity:1" /> </linearGradient>
    
    <filter id="softShadow" x="-20%" y="-20%" width="140%" height="140%">
      <feGaussianBlur in="SourceAlpha" stdDeviation="8" result="blur"/>
      <feOffset in="blur" dx="4" dy="8" result="offsetBlur"/>
      <feComponentTransfer>
        <feFuncA type="linear" slope="0.3"/>
      </feComponentTransfer>
      <feMerge>
        <feMergeNode in="offsetBlur"/>
        <feMergeNode in="SourceGraphic"/>
      </feMerge>
    </filter>
  </defs>

  <g filter="url(#softShadow)" fill="url(#growthGradient)">
    
    <path d="M100,400 L100,220 C100,175.8 135.8,140 180,140 C224.2,140 260,175.8 260,220 L260,400 C260,444.2 224.2,480 180,480 C135.8,480 100,444.2 100,400 Z" />
    
    <path d="M220,380 L220,160 C220,115.8 255.8,80 300,80 C344.2,80 380,115.8 380,160 L380,380 C380,424.2 344.2,460 300,460 C255.8,460 220,424.2 220,380 Z" />
    
    <path d="M340,340 L340,140 L290,140 L395,20 L500,140 L450,140 L450,340 C450,384.2 414.2,420 370,420 C325.8,420 340,384.2 340,340 Z" />
  </g>
</svg>